#!OML:ASF H:\IndianDance\Patient Classification 1\Patient 1\Session 1\dancer.ASF
:FULLY-SPECIFIED
:DEGREES
1270
root 7.26981 15.8557 1.48623 50.5199 -86.6674 -41.7966
lowerback 3.56346 2.86205 0.272219
upperback -4.30948 3.80174 -0.255092
thorax -6.44193 1.84264 -0.760482
lowerneck -18.7866 0.839476 2.95419
upperneck 35.5687 -1.11282 0.838792
head 15.7395 -0.255555 -0.457873
rclavicle 1.8108e-014 9.34288e-015
rhumerus -55.86 0.742721 -24.0177
rradius 98.5586
rwrist -43.7863
rhand -1.69102 2.87395
rfingers 7.12502
rthumb 23.9697 -25.6497
lclavicle 1.8108e-014 9.34288e-015
lhumerus -49.2923 0.378924 19.7672
lradius 117.029
lwrist 40.5969
lhand 23.6704 20.2851
lfingers 7.12502
lthumb 47.9378 42.5269
rfemur -16.2111 11.4377 12.7668
rtibia 21.3784
rfoot -5.6158 -25.2895
rtoes -2.93475
lfemur -14.0979 -2.93574 -11.1738
ltibia 17.8735
lfoot -7.53232 6.51191
ltoes -8.06288
1271
root 7.27545 15.8567 1.48109 48.2826 -86.4578 -39.5138
lowerback 3.64845 2.82187 0.285694
upperback -4.32621 3.75109 -0.225007
thorax -6.51038 1.81706 -0.737596
lowerneck -18.8112 0.755677 2.83184
upperneck 35.5706 -1.17574 0.796229
head 15.7444 -0.303994 -0.4663
rclavicle -5.26779e-015 -5.36719e-015
rhumerus -56.8968 -2.51619 -23.4707
rradius 99.2608
rwrist -45.2504
rhand -1.43655 2.78779
rfingers 7.12502
rthumb 24.2137 -25.7035
lclavicle -5.26779e-015 -5.36719e-015
lhumerus -50.5545 3.37267 20.4359
lradius 117.81
lwrist 41.2093
lhand 23.5559 19.8867
lfingers 7.12502
lthumb 47.8321 42.1775
rfemur -16.196 11.4121 12.8257
rtibia 21.3293
rfoot -5.62746 -25.477
rtoes -2.71979
lfemur -14.2393 -2.97312 -11.0972
ltibia 17.8794
lfoot -7.52586 6.32996
ltoes -8.102
1272
root 7.28124 15.8575 1.47584 46.3469 -86.2549 -37.5393
lowerback 3.72008 2.7805 0.285746
upperback -4.34201 3.69795 -0.193435
thorax -6.57114 1.791 -0.704542
lowerneck -18.8272 0.671532 2.70994
upperneck 35.578 -1.23385 0.738146
head 15.7498 -0.352896 -0.480649
rclavicle -3.27311e-014 -1.68967e-014
rhumerus -57.8977 -5.70951 -22.9286
rradius 99.9849
rwrist -46.8494
rhand -1.0711 2.67411
rfingers 7.12502
rthumb 24.5641 -25.7701
lclavicle -3.27311e-014 -1.68967e-014
lhumerus -51.7915 6.25007 21.1342
lradius 118.604
lwrist 41.7862
lhand 23.3125 19.42
lfingers 7.12502
lthumb 47.6075 41.8139
rfemur -16.1807 11.3745 12.881
rtibia 21.2855
rfoot -5.64146 -25.6424
rtoes -2.51994
lfemur -14.3671 -3.01308 -11.0265
ltibia 17.8774
lfoot -7.5162 6.15916
ltoes -8.12382
1273
root 7.28718 15.8582 1.47054 44.6935 -86.0605 -35.8522
lowerback 3.7778 2.73949 0.277345
upperback -4.35606 3.64455 -0.163063
thorax -6.62243 1.76531 -0.667042
lowerneck -18.839 0.586762 2.58752
upperneck 35.59 -1.29012 0.672049
head 15.7565 -0.402468 -0.498076
rclavicle 7.01958e-015 -3.97569e-016
rhumerus -58.8693 -8.8341 -22.4021
rradius 100.73
rwrist -48.5796
rhand -0.635529 2.5243
rfingers 7.12502
rthumb 24.9815 -25.8625
lclavicle 7.01958e-015 -3.97569e-016
lhumerus -52.9889 8.98284 21.8661
lradius 119.396
lwrist 42.4068
lhand 22.9584 18.9437
lfingers 7.12502
lthumb 47.2805 41.4854
rfemur -16.1674 11.3241 12.9345
rtibia 21.2471
rfoot -5.65314 -25.7835
rtoes -2.3468
lfemur -14.4829 -3.05586 -10.9596
ltibia 17.8683
lfoot -7.5031 6.00234
ltoes -8.12981
1274
root 7.29327 15.8589 1.46523 43.286 -85.8779 -34.4178
lowerback 3.82313 2.70055 0.26197
upperback -4.36867 3.59309 -0.136895
thorax -6.66514 1.74091 -0.629371
lowerneck -18.8473 0.498592 2.46595
upperneck 35.6085 -1.35013 0.599431
head 15.7655 -0.454658 -0.519262
rclavicle -1.67103e-014 1.78906e-015
rhumerus -59.819 -11.8846 -21.897
rradius 101.493
rwrist -50.4105
rhand -0.124887 2.34311
rfingers 7.12502
rthumb 25.4707 -25.9748
lclavicle -1.67103e-014 1.78906e-015
lhumerus -54.1224 11.5567 22.6355
lradius 120.16
lwrist 43.1234
lhand 22.4814 18.517
lfingers 7.12502
lthumb 46.8393 41.2537
rfemur -16.1547 11.2663 12.9855
rtibia 21.2137
rfoot -5.66103 -25.9035
rtoes -2.20059
lfemur -14.5855 -3.09567 -10.8977
ltibia 17.8535
lfoot -7.48679 5.85642
ltoes -8.13265
1275
root 7.29951 15.8595 1.45995 42.0935 -85.7077 -33.2047
lowerback 3.85999 2.6635 0.244187
upperback -4.37943 3.54353 -0.117787
thorax -6.7006 1.71747 -0.597262
lowerneck -18.8566 0.407579 2.34701
upperneck 35.6281 -1.41522 0.525548
head 15.7753 -0.508884 -0.542465
rclavicle -5.86725e-014 6.55989e-015
rhumerus -60.7429 -14.8553 -21.4283
rradius 102.261
rwrist -52.3185
rhand 0.413483 2.15336
rfingers 7.12502
rthumb 25.9864 -26.0899
lclavicle -5.86725e-014 6.55989e-015
lhumerus -55.1713 13.967 23.4356
lradius 120.866
lwrist 43.9505
lhand 22 18.0828
lfingers 7.12502
lthumb 46.3934 41.0117
rfemur -16.1431 11.2054 13.0347
rtibia 21.1852
rfoot -5.66694 -26.0062
rtoes -2.07271
lfemur -14.6759 -3.13531 -10.8392
ltibia 17.8345
lfoot -7.46668 5.72322
ltoes -8.12492
1276
root 7.30599 15.86 1.45473 41.0866 -85.5511 -32.1839
lowerback 3.89355 2.62874 0.228368
upperback -4.38848 3.49651 -0.109112
thorax -6.73147 1.69497 -0.577026
lowerneck -18.8625 0.314729 2.22698
upperneck 35.6403 -1.48666 0.463391
head 15.7809 -0.564287 -0.561572
rclavicle 4.84538e-014 -1.72943e-014
rhumerus -61.6283 -17.7569 -21.0051
rradius 103.017
rwrist -54.276
rhand 0.940866 1.98129
rfingers 7.12502
rthumb 26.4912 -26.1868
lclavicle 4.84538e-014 -1.72943e-014
lhumerus -56.1153 16.2193 24.2609
lradius 121.494
lwrist 44.8811
lhand 21.5626 17.6468
lfingers 7.12502
lthumb 45.9879 40.7464
rfemur -16.1319 11.1448 13.0822
rtibia 21.1613
rfoot -5.66753 -26.0934
rtoes -1.96812
lfemur -14.754 -3.17056 -10.7844
ltibia 17.8127
lfoot -7.44351 5.59994
ltoes -8.11974
1277
root 7.31268 15.8605 1.4496 40.2372 -85.4103 -31.3285
lowerback 3.92193 2.59747 0.215956
upperback -4.39204 3.45375 -0.112396
thorax -6.7525 1.67423 -0.57102
lowerneck -18.8709 0.22031 2.11069
upperneck 35.6418 -1.56421 0.409742
head 15.782 -0.620382 -0.578714
rclavicle 2.2736e-015 0
rhumerus -62.4665 -20.6033 -20.6348
rradius 103.761
rwrist -56.2819
rhand 1.40181 1.85174
rfingers 7.12502
rthumb 26.9324 -26.2491
lclavicle 2.2736e-015 0
lhumerus -56.9376 18.3207 25.1092
lradius 122.029
lwrist 45.8947
lhand 21.1476 17.2195
lfingers 7.12502
lthumb 45.6026 40.4777
rfemur -16.1201 11.087 13.1272
rtibia 21.1424
rfoot -5.66566 -26.1663
rtoes -1.87661
lfemur -14.8185 -3.20077 -10.7345
ltibia 17.7883
lfoot -7.41636 5.4871
ltoes -8.1251
1278
root 7.31961 15.8611 1.44452 39.5429 -85.2873 -30.6355
lowerback 3.94376 2.57097 0.206981
upperback -4.38746 3.417 -0.126883
thorax -6.76011 1.65615 -0.578528
lowerneck -18.878 0.125721 1.99541
upperneck 35.6206 -1.64528 0.369453
head 15.7718 -0.675644 -0.59062
rclavicle -2.37361e-014 5.76476e-015
rhumerus -63.2482 -23.4053 -20.3243
rradius 104.492
rwrist -58.3147
rhand 1.73739 1.80687
rfingers 7.12502
rthumb 27.2534 -26.244
lclavicle -2.37361e-014 5.76476e-015
lhumerus -57.6362 20.2882 25.9809
lradius 122.471
lwrist 46.9431
lhand 20.6756 16.7878
lfingers 7.12502
lthumb 45.1639 40.2225
rfemur -16.1093 11.04 13.1697
rtibia 21.1285
rfoot -5.65897 -26.231
rtoes -1.79931
lfemur -14.8697 -3.22689 -10.6883
ltibia 17.7621
lfoot -7.38495 5.38696
ltoes -8.1402
1279
root 7.32676 15.8616 1.43952 38.9681 -85.1834 -30.0704
lowerback 3.96547 2.55078 0.202078
upperback -4.37846 3.38832 -0.153528
thorax -6.76191 1.64163 -0.601562
lowerneck -18.8818 0.0297171 1.88419
upperneck 35.5801 -1.73141 0.337732
head 15.7517 -0.731051 -0.600183
rclavicle 3.76448e-015 1.21259e-014
rhumerus -63.9802 -26.1665 -20.0711
rradius 105.225
rwrist -60.3901
rhand 1.94695 1.84459
rfingers 7.12502
rthumb 27.4538 -26.1747
lclavicle 3.76448e-015 1.21259e-014
lhumerus -58.2197 22.1166 26.8818
lradius 122.835
lwrist 48.0007
lhand 20.0454 16.3393
lfingers 7.12502
lthumb 44.5774 40.0034
rfemur -16.0977 11.0018 13.2086
rtibia 21.1195
rfoot -5.64912 -26.2859
rtoes -1.73243
lfemur -14.9062 -3.24961 -10.6476
ltibia 17.7344
lfoot -7.34989 5.30043
ltoes -8.16562
1280
root 7.33412 15.862 1.43455 38.5151 -85.0989 -29.6347
lowerback 3.98631 2.53701 0.199723
upperback -4.36453 3.36795 -0.189007
thorax -6.75723 1.63093 -0.635798
lowerneck -18.8833 -0.064668 1.77566
upperneck 35.5217 -1.81611 0.310986
head 15.7224 -0.784573 -0.607478
rclavicle -1.61513e-015 -3.77691e-015
rhumerus -64.6632 -28.8908 -19.8693
rradius 105.978
rwrist -62.555
rhand 2.07267 1.93275
rfingers 7.12502
rthumb 27.5741 -26.0674
lclavicle -1.61513e-015 -3.77691e-015
lhumerus -58.7014 23.814 27.8163
lradius 123.137
lwrist 49.0532
lhand 19.1677 15.8749
lfingers 7.12502
lthumb 43.7589 39.8471
rfemur -16.0861 10.9787 13.2444
rtibia 21.1148
rfoot -5.63488 -26.3368
rtoes -1.67579
lfemur -14.9289 -3.2703 -10.6108
ltibia 17.7059
lfoot -7.31012 5.22927
ltoes -8.19296
1281
root 7.34165 15.8625 1.42964 38.1728 -85.0325 -29.3174
lowerback 4.00387 2.52959 0.200596
upperback -4.34471 3.35599 -0.231291
thorax -6.74373 1.62416 -0.679367
lowerneck -18.8763 -0.153121 1.67094
upperneck 35.4428 -1.89258 0.288071
head 15.6813 -0.833428 -0.611826
rclavicle -2.67365e-014 -9.34288e-015
rhumerus -65.2976 -31.5714 -19.7232
rradius 106.765
rwrist -64.8316
rhand 2.10078 2.0684
rfingers 7.12502
rthumb 27.601 -25.9274
lclavicle -2.67365e-014 -9.34288e-015
lhumerus -59.0937 25.3824 28.7869
lradius 123.392
lwrist 50.1123
lhand 17.9634 15.3961
lfingers 7.12502
lthumb 42.6333 39.7704
rfemur -16.0736 10.9665 13.2784
rtibia 21.1137
rfoot -5.61744 -26.3805
rtoes -1.63119
lfemur -14.9387 -3.2909 -10.5767
ltibia 17.6773
lfoot -7.26774 5.17437
ltoes -8.21255
1282
root 7.3493 15.8628 1.4248 37.9393 -84.9836 -29.1166
lowerback 4.0196 2.5286 0.203251
upperback -4.32096 3.35255 -0.277841
thorax -6.72458 1.62147 -0.72897
lowerneck -18.8708 -0.235808 1.57306
upperneck 35.3603 -1.95998 0.258911
head 15.639 -0.878327 -0.618223
rclavicle 9.32549e-014 2.18663e-014
rhumerus -65.8843 -34.1968 -19.6306
rradius 107.592
rwrist -67.2421
rhand 2.01796 2.20985
rfingers 7.12502
rthumb 27.5218 -25.7986
lclavicle 9.32549e-014 2.18663e-014
lhumerus -59.4082 26.8319 29.7977
lradius 123.612
lwrist 51.198
lhand 16.4417 14.9353
lfingers 7.12502
lthumb 41.2069 39.7856
rfemur -16.0589 10.9654 13.3114
rtibia 21.1145
rfoot -5.59932 -26.4184
rtoes -1.58599
lfemur -14.9356 -3.30683 -10.5453
ltibia 17.6497
lfoot -7.22471 5.13229
ltoes -8.22792
1283
root 7.35702 15.8631 1.42009 37.829 -84.9505 -29.0458
lowerback 4.03462 2.53333 0.209539
upperback -4.29589 3.3569 -0.327002
thorax -6.70318 1.62242 -0.783976
lowerneck -18.8588 -0.309661 1.47724
upperneck 35.2752 -2.01561 0.232465
head 15.5942 -0.917666 -0.62148
rclavicle 1.22004e-014 -4.37326e-015
rhumerus -66.4145 -36.7527 -19.6006
rradius 108.452
rwrist -69.7689
rhand 1.84539 2.35882
rfingers 7.12502
rthumb 27.3567 -25.6758
lclavicle 1.22004e-014 -4.37326e-015
lhumerus -59.6588 28.1664 30.84
lradius 123.805
lwrist 52.3596
lhand 14.6775 14.5484
lfingers 7.12502
lthumb 39.548 39.9092
rfemur -16.0421 10.9734 13.3453
rtibia 21.1161
rfoot -5.58053 -26.4479
rtoes -1.5499
lfemur -14.9209 -3.32305 -10.5136
ltibia 17.624
lfoot -7.18152 5.10801
ltoes -8.23359
1284
root 7.3648 15.8633 1.41566 37.8352 -84.9328 -29.0965
lowerback 4.04706 2.54285 0.219236
upperback -4.27248 3.36771 -0.378538
thorax -6.68162 1.62631 -0.84388
lowerneck -18.8441 -0.375304 1.38956
upperneck 35.1992 -2.06121 0.201588
head 15.5533 -0.952466 -0.626268
rclavicle -2.07854e-014 -3.18055e-015
rhumerus -66.8802 -39.2168 -19.638
rradius 109.343
rwrist -72.4086
rhand 1.55222 2.47117
rfingers 7.12502
rthumb 27.0763 -25.6074
lclavicle -2.07854e-014 -3.18055e-015
lhumerus -59.8564 29.4025 31.897
lradius 123.972
lwrist 53.6345
lhand 12.7767 14.2746
lfingers 7.12502
lthumb 37.7549 40.1401
rfemur -16.0245 10.9835 13.3794
rtibia 21.117
rfoot -5.55875 -26.4633
rtoes -1.52726
lfemur -14.8971 -3.33634 -10.4826
ltibia 17.6006
lfoot -7.13913 5.09865
ltoes -8.23288
